<svg width="52" height="52" viewBox="0 0 52 52" fill="none" xmlns="http://www.w3.org/2000/svg">
<path d="M26 51.9572C40.3594 51.9572 52 40.3262 52 25.9786C52 11.631 40.3594 0 26 0C11.6406 0 0 11.631 0 25.9786C0 40.3262 11.6406 51.9572 26 51.9572Z" fill="white"/>
<path d="M26 0C11.6412 0 0 11.6316 0 25.9786C0 36.9901 6.84774 46.398 16.5202 50.1826C16.2848 48.1299 16.0922 44.9655 16.6058 42.7204C17.0765 40.6891 19.6444 29.8059 19.6444 29.8059C19.6444 29.8059 18.8741 28.2451 18.8741 25.9572C18.8741 22.3438 20.9712 19.6497 23.5819 19.6497C25.8074 19.6497 26.8774 21.3174 26.8774 23.3059C26.8774 25.5296 25.465 28.8651 24.716 31.9655C24.0955 34.5526 26.0214 36.6694 28.5679 36.6694C33.1901 36.6694 36.7424 31.7944 36.7424 24.7812C36.7424 18.5592 32.27 14.2188 25.8716 14.2188C18.4675 14.2188 14.1235 19.7566 14.1235 25.4868C14.1235 27.7105 14.9794 30.1053 16.0494 31.4095C16.2634 31.6661 16.2848 31.9013 16.2206 32.1579C16.028 32.9704 15.5786 34.7451 15.493 35.1086C15.386 35.5789 15.1078 35.6859 14.6156 35.4507C11.363 33.9326 9.33004 29.2072 9.33004 25.3799C9.33004 17.1908 15.279 9.66447 26.5136 9.66447C35.5226 9.66447 42.5416 16.0789 42.5416 24.6743C42.5416 33.6332 36.8922 40.8388 29.0601 40.8388C26.428 40.8388 23.9457 39.4704 23.1111 37.8454C23.1111 37.8454 21.8058 42.8059 21.4848 44.0247C20.907 46.2911 19.3235 49.1135 18.2535 50.8454C20.693 51.5938 23.2609 52 25.9572 52C40.3161 52 51.9572 40.3684 51.9572 26.0214C52 11.6316 40.3588 0 26 0Z" fill="#E60023"/>
</svg>
