<svg width="936" height="1001" viewBox="0 0 936 1001" fill="none" xmlns="http://www.w3.org/2000/svg">
<path d="M759.377 -46.195L834.338 -459C898.865 -430.355 1035.17 -364.874 1064.16 -332.107C1100.41 -291.147 1052.63 -46.195 931.541 190.726C810.45 427.647 734.665 309.588 704.186 438.891C673.707 568.194 673.707 484.669 734.665 630.034C795.622 775.4 673.707 748.896 532.847 915.946C391.986 1083 424.936 1009.91 206.642 997.061C-11.6507 984.211 123.444 858.924 29.5366 727.212C-64.3706 595.5 92.9652 603.531 123.444 516.794C153.923 430.057 377.982 381.869 458.709 397.932C539.437 413.994 638.286 204.379 673.707 4.40176C702.044 -155.58 742.628 -95.9886 759.377 -46.195Z" fill="#FF7200" fill-opacity="0.26"/>
</svg>
