<svg width="736" height="876" viewBox="0 0 736 876" fill="none" xmlns="http://www.w3.org/2000/svg">
<path d="M519.425 129.822L570.7 -158C614.837 -138.028 708.07 -92.372 727.904 -69.5255C752.696 -40.9672 720.016 129.822 637.188 295.012C554.36 460.202 502.522 377.887 481.674 468.041C460.826 558.196 460.826 499.959 502.522 601.313C544.217 702.667 460.826 684.188 364.475 800.661C268.124 917.134 290.662 866.177 141.347 857.217C-7.96927 848.258 84.4375 760.903 20.2035 669.069C-44.0304 577.235 63.5896 582.834 84.4375 522.358C105.285 461.882 258.545 428.284 313.764 439.483C368.983 450.682 436.597 304.531 460.826 165.1C480.209 53.555 507.968 95.1044 519.425 129.822Z" fill="#FF7200" fill-opacity="0.26"/>
</svg>
